<?xml version="1.0" encoding="UTF-8"?>
<svg width="117px" height="29px" viewBox="0 0 117 29" version="1.1" xmlns="http://www.w3.org/2000/svg" xmlns:xlink="http://www.w3.org/1999/xlink">
    <!-- Generator: VSCode - https://code.visualstudio.com/ -->
    <title>logo</title>
    <desc>Created with VSCode.</desc>
    <defs></defs>
    <g id="Page-1" stroke="none" stroke-width="1" fill="none" fill-rule="evenodd">
        <g id="logo" transform="translate(-1.000000, 0.000000)" fill-rule="nonzero">
            <rect id="Rectangle-path" fill="#F9A51A" x="102.45" y="0" width="14.34" height="20.24"></rect>
            <path d="M103.96,14.87 L104.67,14.87 L104.67,18.2 L106.4,18.2 L106.4,18.71 L103.95,18.71 L103.95,14.87 L103.96,14.87 Z M107.04,14.87 L107.75,14.87 L107.75,18.2 L109.53,18.2 L109.53,18.71 L107.08,18.71 L107.08,14.87 L107.04,14.87 Z M114.04,18.03 L114.04,18.61 C113.822432,18.6829516 113.597905,18.7332187 113.37,18.76 C113.116024,18.8069025 112.85827,18.8303346 112.6,18.83 C112.220507,18.8498457 111.84011,18.8161822 111.47,18.73 C111.114656,18.6395613 110.776749,18.490882 110.47,18.29 C110.198702,18.1194784 109.972349,17.8862659 109.81,17.61 C109.44411,16.9454419 109.585061,16.1163171 110.15,15.61 C110.321225,15.4591231 110.509107,15.3282768 110.71,15.22 C111.291825,14.937436 111.933494,14.8001805 112.58,14.82 C112.847939,14.8155411 113.115724,14.835625 113.38,14.88 C113.590531,14.9022543 113.798262,14.9458107 114,15.01 L114,15.59 C113.546168,15.3600317 113.036594,15.26297 112.53,15.31 C111.735598,15.234507 110.95685,15.5655693 110.46,16.19 C110.266972,16.5807972 110.266972,17.0392028 110.46,17.43 C110.954532,18.0574701 111.735018,18.3892709 112.53,18.31 C113.04887,18.3684598 113.573539,18.2746448 114.04,18.04 L114.04,18.03 Z" id="Shape" fill="#FFFFFF"></path>
            <path d="M112.99,2.6 L112.99,1.09 L112.63,1.09 L112.63,0.76 L113.72,0.76 L113.72,1.09 L113.35,1.09 L113.35,2.6 L112.99,2.6 Z M113.91,2.6 L113.91,0.76 L114.41,0.76 L114.93,2.17 L115.46,0.76 L115.95,0.76 L115.95,2.6 L115.59,2.6 L115.59,1.22 L115.09,2.6 L114.78,2.6 L114.27,1.22 L114.27,2.6 L113.91,2.6 Z" id="Shape" fill="#FFFFFF"></path>
            <path d="M1.59,23.3 C1.74032839,23.2971019 1.88759493,23.3426844 2.01,23.43 C2.11932149,23.497363 2.18589951,23.6165906 2.18589951,23.745 C2.18589951,23.8734094 2.11932149,23.992637 2.01,24.06 C1.7562632,24.2315074 1.4237368,24.2315074 1.17,24.06 C1.06040359,23.9900124 0.992899315,23.8700048 0.99,23.74 C0.992218052,23.6149923 1.0557859,23.4990744 1.16,23.43 C1.28240507,23.3426844 1.42967161,23.2971019 1.58,23.3 L1.59,23.3 Z M1.12,24.42 L2.06,24.42 L2.06,27.15 L1.12,27.15 L1.12,24.42 Z M3.92,24.42 L4.85,24.42 L4.85,24.7 C5.03041763,24.5845195 5.22548365,24.4937129 5.43,24.43 C5.60178264,24.377465 5.78036441,24.3505092 5.96,24.35 C6.29651014,24.3420352 6.62646746,24.4438305 6.9,24.64 C7.11796859,24.8088295 7.23787614,25.0748743 7.22,25.35 L7.22,27.15 L6.3,27.15 L6.3,25.95 C6.31114141,25.7315798 6.29093619,25.5126899 6.24,25.3 C6.20010941,25.1979709 6.12583103,25.1130813 6.03,25.06 C5.91568873,25.001705 5.78818343,24.9741363 5.66,24.98 C5.48611008,24.9748002 5.31489531,25.0237187 5.17,25.12 C5.03661864,25.2116053 4.93798222,25.345469 4.89,25.5 C4.8680008,25.6826734 4.8680008,25.8673266 4.89,26.05 L4.89,27.15 L3.96,27.15 L3.96,24.42 L3.92,24.42 Z M9.25,23.42 L10.18,23.42 L10.18,24.42 L10.73,24.42 L10.73,25.01 L10.18,25.01 L10.18,27.15 L9.25,27.15 L9.25,25.01 L8.77,25.01 L8.77,24.42 L9.25,24.42 L9.25,23.42 Z M15.99,25.99 L12.99,25.99 C13.0372964,26.1854883 13.1642049,26.3522824 13.34,26.45 C13.5596808,26.5721083 13.8089022,26.6309522 14.06,26.62 C14.3810802,26.6280063 14.6963494,26.5334255 14.96,26.35 L15.75,26.62 C15.5521659,26.8239336 15.3088654,26.9781381 15.04,27.07 C14.7180722,27.1783799 14.3795583,27.229157 14.04,27.22 C13.5326296,27.2447243 13.030907,27.1043823 12.61,26.82 C12.2724457,26.5982523 12.0665093,26.2238224 12.06,25.82 C12.0715844,25.417542 12.2763158,25.0453031 12.61,24.82 C13.0123559,24.5352116 13.4974176,24.3910991 13.99,24.41 C14.4986616,24.3867407 15.0009389,24.5307503 15.42,24.82 C15.7731553,25.0692918 15.9792939,25.477821 15.97,25.91 L15.97,26.04 L15.99,25.99 Z M15.05,25.45 C14.9775642,25.2879524 14.8500027,25.1568475 14.69,25.08 C14.4944069,24.9830861 14.2782302,24.9350469 14.06,24.94 C13.8235463,24.935877 13.5898069,24.9908745 13.38,25.1 C13.2395046,25.1868019 13.1226939,25.3070482 13.04,25.45 L15.05,25.45 Z M17.66,22.85 L18.6,22.85 L18.6,27.15 L17.66,27.15 L17.66,22.87 L17.66,22.85 Z M20.36,22.85 L21.29,22.85 L21.29,27.15 L20.36,27.15 L20.36,22.87 L20.36,22.85 Z M23.52,23.3 C23.6704299,23.2963778 23.8179202,23.3420296 23.94,23.43 C24.0442141,23.4990744 24.1077819,23.6149923 24.11,23.74 C24.1077819,23.8650077 24.0442141,23.9809256 23.94,24.05 C23.6862632,24.2215074 23.3537368,24.2215074 23.1,24.05 C22.9904036,23.9800124 22.9228993,23.8600048 22.92,23.73 C22.9222181,23.6049923 22.9857859,23.4890744 23.09,23.42 C23.2124051,23.3326844 23.3596716,23.2871019 23.51,23.29 L23.52,23.3 Z M23.05,24.42 L23.99,24.42 L23.99,27.15 L23.05,27.15 L23.05,24.42 Z M28.6,24.42 L29.53,24.42 L29.53,26.76 C29.5567489,27.1330244 29.4177253,27.4988758 29.15,27.76 C28.7063616,28.0872498 28.1595608,28.2434786 27.61,28.2 C27.300318,28.2061636 26.9911255,28.1725557 26.69,28.1 C26.4632701,28.0448462 26.2493437,27.9463722 26.06,27.81 C25.8949957,27.6886471 25.7641074,27.5267589 25.68,27.34 L26.68,27.34 C26.7830456,27.421238 26.9024412,27.4792302 27.03,27.51 C27.1967155,27.5518321 27.368128,27.5719982 27.54,27.57 C27.7470329,27.5759208 27.9534985,27.5454587 28.15,27.48 C28.2760457,27.4398642 28.38739,27.363315 28.47,27.26 C28.5443917,27.1151853 28.5756298,26.9520528 28.56,26.79 C28.4034218,26.9067612 28.2273559,26.9947942 28.04,27.05 C27.8414708,27.1053685 27.6360927,27.1323033 27.43,27.13 C26.973406,27.1456338 26.5252217,27.0044733 26.16,26.73 C25.83252,26.502678 25.6380207,26.1286409 25.64,25.73 C25.6482359,25.3266379 25.8537591,24.9529593 26.19,24.73 C26.5355706,24.488654 26.9485584,24.3626577 27.37,24.37 C27.792544,24.3655791 28.2056309,24.4951063 28.55,24.74 L28.55,24.44 L28.6,24.42 Z M27.6,24.99 C27.3390265,24.9805351 27.0822855,25.0579091 26.87,25.21 C26.6905435,25.3314752 26.5821528,25.5333062 26.58,25.75 C26.5754649,25.9737626 26.6846369,26.1845775 26.87,26.31 C27.0853642,26.4635312 27.345739,26.5409399 27.61,26.53 C27.8666324,26.5416579 28.1198748,26.4677955 28.33,26.32 C28.510175,26.1911035 28.6149878,25.9814779 28.61,25.76 C28.6111544,25.5397641 28.5023781,25.3334643 28.32,25.21 C28.1064647,25.0614517 27.8498284,24.9876248 27.59,25 L27.6,24.99 Z M35.19,25.99 L32.19,25.99 C32.2372964,26.1854883 32.3642049,26.3522824 32.54,26.45 C32.7596808,26.5721083 33.0089022,26.6309522 33.26,26.62 C33.5810802,26.6280063 33.8963494,26.5334255 34.16,26.35 L34.95,26.62 C34.7524083,26.8242314 34.5090313,26.9784844 34.24,27.07 C33.9179747,27.1779752 33.5795328,27.2287414 33.24,27.22 C32.7326296,27.2447243 32.230907,27.1043823 31.81,26.82 C31.4711081,26.5994917 31.2647463,26.2242884 31.26,25.82 C31.2715844,25.417542 31.4763158,25.0453031 31.81,24.82 C32.2123559,24.5352116 32.6974176,24.3910991 33.19,24.41 C33.6986616,24.3867407 34.2009389,24.5307503 34.62,24.82 C34.9731553,25.0692918 35.1792939,25.477821 35.17,25.91 L35.17,26.04 L35.19,25.99 Z M34.25,25.45 C34.1750847,25.2862474 34.0437526,25.1549153 33.88,25.08 C33.6845416,24.9827052 33.4682695,24.9346447 33.25,24.94 C33.0101773,24.9341933 32.7727925,24.989239 32.56,25.1 C32.4195046,25.1868019 32.3026939,25.3070482 32.22,25.45 L34.25,25.45 Z M36.96,24.45 L37.89,24.45 L37.89,24.73 C38.0705892,24.6148319 38.2656123,24.5240453 38.47,24.46 C38.6417826,24.407465 38.8203644,24.3805092 39,24.38 C39.3365101,24.3720352 39.6664675,24.4738305 39.94,24.67 C40.1579686,24.8388295 40.2778761,25.1048743 40.26,25.38 L40.26,27.18 L39.34,27.18 L39.34,25.98 C39.3518463,25.7615659 39.3316317,25.5425746 39.28,25.33 C39.2408574,25.2275186 39.1663786,25.1423999 39.07,25.09 C38.9556887,25.031705 38.8281834,25.0041363 38.7,25.01 C38.5261101,25.0048002 38.3548953,25.0537187 38.21,25.15 C38.0766186,25.2416053 37.9779822,25.375469 37.93,25.53 C37.908564,25.7127067 37.908564,25.8972933 37.93,26.08 L37.93,27.18 L37,27.18 L37,24.45 L36.96,24.45 Z M42.29,23.45 L43.22,23.45 L43.22,24.45 L43.77,24.45 L43.77,25.04 L43.22,25.04 L43.22,27.18 L42.29,27.18 L42.29,25.04 L41.81,25.04 L41.81,24.45 L42.29,24.45 L42.29,23.45 Z" id="Shape" fill="#F9A51A"></path>
            <path d="M51.53,24.42 L52.47,24.42 L52.47,26.76 C52.495579,27.1348056 52.3525777,27.5014755 52.08,27.76 C51.6286358,28.0870299 51.0757256,28.2429789 50.52,28.2 C50.2070273,28.205928 49.8945579,28.1723292 49.59,28.1 C49.3599373,28.0455805 49.1425986,27.9470989 48.95,27.81 C48.7846783,27.6889798 48.6537156,27.5269996 48.57,27.34 L49.57,27.34 C49.6764859,27.4217201 49.7992387,27.4796867 49.93,27.51 C50.0999563,27.5526944 50.2747866,27.5728672 50.45,27.57 C50.6569722,27.574913 50.8632655,27.5444763 51.06,27.48 C51.1896817,27.4416509 51.3047232,27.3649565 51.39,27.26 C51.4683886,27.1164133 51.5031443,26.9530618 51.49,26.79 C51.3329871,26.9060541 51.157051,26.9940221 50.97,27.05 C50.7680628,27.1053868 50.5593824,27.1323133 50.35,27.13 C49.890555,27.1439398 49.4397559,27.0030651 49.07,26.73 C48.74252,26.502678 48.5480207,26.1286409 48.55,25.73 C48.5565093,25.3261776 48.7624457,24.9517477 49.1,24.73 C49.4511221,24.48458 49.8717678,24.3583862 50.3,24.37 C50.7293495,24.3613036 51.1500964,24.4910339 51.5,24.74 L51.5,24.44 L51.53,24.42 Z M50.53,24.99 C50.2659285,24.9805655 50.0060279,25.0578332 49.79,25.21 C49.6056542,25.3322812 49.4948287,25.538785 49.4948287,25.76 C49.4948287,25.981215 49.6056542,26.1877188 49.79,26.31 C50.0091087,26.463598 50.2726385,26.5409001 50.54,26.53 C50.7998284,26.5423752 51.0564647,26.4685483 51.27,26.32 C51.4500637,26.192526 51.5570942,25.9856186 51.5570942,25.765 C51.5570942,25.5443814 51.4500637,25.337474 51.27,25.21 C51.0527425,25.0613709 50.7929426,24.9876439 50.53,25 L50.53,24.99 Z M54.34,22.79 L55.29,22.79 L55.29,27.15 L54.34,27.15 L54.34,22.79 Z M58.94,24.35 C59.2825025,24.3478645 59.6221478,24.4123972 59.94,24.54 C60.2237032,24.6482314 60.4750027,24.8272393 60.67,25.06 C60.8363481,25.2593728 60.9282552,25.5103499 60.93,25.77 C60.9280992,26.0326493 60.8363464,26.2867338 60.67,26.49 C60.480258,26.7263613 60.2320651,26.9090588 59.95,27.02 C59.6324409,27.1486014 59.292596,27.2131719 58.95,27.21 C58.4533731,27.2244941 57.9655037,27.0770803 57.56,26.79 C57.2148122,26.5728791 57.0009303,26.1976477 56.99,25.79 C56.9995713,25.3427122 57.2474626,24.9346449 57.64,24.72 C58.0306008,24.4701273 58.4863932,24.341392 58.95,24.35 L58.94,24.35 Z M58.94,24.99 C58.6790265,24.9805351 58.4222855,25.0579091 58.21,25.21 C58.0296434,25.3439449 57.9233202,25.5553453 57.9233202,25.78 C57.9233202,26.0046547 58.0296434,26.2160551 58.21,26.35 C58.4219437,26.5027843 58.6789282,26.5802317 58.94,26.57 C59.204261,26.5809399 59.4646358,26.5035312 59.68,26.35 C59.8603566,26.2160551 59.9666798,26.0046547 59.9666798,25.78 C59.9666798,25.5553453 59.8603566,25.3439449 59.68,25.21 C59.4643004,25.057157 59.2041659,24.9798197 58.94,24.99 L58.94,24.99 Z M63.67,22.79 L63.67,24.72 C63.8400891,24.596655 64.0292705,24.5020643 64.23,24.44 C64.4374457,24.3773119 64.6533107,24.3469559 64.87,24.35 C65.3231982,24.3366597 65.7674807,24.4777018 66.13,24.75 C66.4510719,24.9829036 66.6437297,25.3533995 66.65,25.75 C66.644626,26.1492198 66.4473546,26.5214299 66.12,26.75 C65.756094,27.0280405 65.3077893,27.1727688 64.85,27.16 C64.6438253,27.163718 64.4382437,27.1367565 64.24,27.08 C64.0404009,27.0197398 63.851452,26.9286394 63.68,26.81 L63.68,27.1 L62.74,27.1 L62.74,22.74 L63.67,22.79 Z M64.67,24.98 C64.4059285,24.9705655 64.1460279,25.0478332 63.93,25.2 C63.741439,25.3318248 63.6323233,25.5500564 63.64,25.78 C63.6325583,26.0126509 63.74125,26.2337823 63.93,26.37 C64.1437416,26.5277845 64.4044749,26.6088232 64.67,26.6 C64.9323466,26.6081296 65.1896954,26.5270471 65.4,26.37 C65.584462,26.2343204 65.6933854,26.0189873 65.6933854,25.79 C65.6933854,25.5610127 65.584462,25.3456796 65.4,25.21 C65.1853286,25.0550549 64.9244531,24.9774973 64.66,24.99 L64.67,24.98 Z M71.24,24.42 L72.18,24.42 L72.18,27.15 L71.24,27.15 L71.24,26.87 C71.068548,26.9886394 70.8795991,27.0797398 70.68,27.14 C70.4817867,27.1969028 70.2761831,27.2238672 70.07,27.22 C69.6122107,27.2327688 69.163906,27.0880405 68.8,26.81 C68.4726454,26.5814299 68.275374,26.2092198 68.27,25.81 C68.2762703,25.4133995 68.4689281,25.0429036 68.79,24.81 C69.1525193,24.5377018 69.5968018,24.3966597 70.05,24.41 C70.2666793,24.4071145 70.4825202,24.4374671 70.69,24.5 C70.887506,24.562398 71.0733429,24.6570059 71.24,24.78 L71.24,24.48 L71.24,24.42 Z M70.24,24.98 C69.9788292,24.9689868 69.7215944,25.0465096 69.51,25.2 C69.325538,25.3356796 69.2166146,25.5510127 69.2166146,25.78 C69.2166146,26.0089873 69.325538,26.2243204 69.51,26.36 C69.7203046,26.5170471 69.9776534,26.5981296 70.24,26.59 C70.5055251,26.5988232 70.7662584,26.5177845 70.98,26.36 C71.16875,26.2237823 71.2774417,26.0026509 71.27,25.77 C71.2776767,25.5400564 71.168561,25.3218248 70.98,25.19 C70.7612206,25.0357187 70.4974535,24.958347 70.23,24.97 L70.24,24.98 Z M74.06,22.79 L75.01,22.79 L75.01,27.15 L74.06,27.15 L74.06,22.79 Z" id="Shape" fill="#F9A51A"></path>
            <path d="M82.63,24.8 L82.04,25.22 C81.8559656,25.0673045 81.6285735,24.9763477 81.39,24.96 C81.3078139,24.9404443 81.2221861,24.9404443 81.14,24.96 C81.0892945,24.9791982 81.0542327,25.0259473 81.05,25.08 C81.0545042,25.1204733 81.0764079,25.1569795 81.11,25.18 C81.1974,25.2351105 81.291499,25.2787993 81.39,25.31 L81.74,25.44 C82.0140259,25.5223419 82.2689612,25.6583074 82.49,25.84 C82.6205505,25.965202 82.6930253,26.1391414 82.69,26.32 C82.6851979,26.5750351 82.5439556,26.8078941 82.32,26.93 C82.0175404,27.1066467 81.6696864,27.1901316 81.32,27.17 C80.8352337,27.1935533 80.3607941,27.0246241 80,26.7 L80.58,26.24 C80.6964507,26.3376153 80.8282239,26.4153277 80.97,26.47 C81.0968659,26.5237178 81.2323521,26.5542022 81.37,26.56 C81.4743879,26.5631733 81.5777963,26.5390447 81.67,26.49 C81.75,26.49 81.79,26.4 81.79,26.34 C81.79,26.28 81.65,26.13 81.38,26.03 L81.06,25.91 C80.4466667,25.69 80.14,25.41 80.14,25.07 C80.1516615,24.8378207 80.2846119,24.6288987 80.49,24.52 C80.7539746,24.3576227 81.0603324,24.2775519 81.37,24.29 C81.6052678,24.2891047 81.8388484,24.3297274 82.06,24.41 C82.2648499,24.4793441 82.4524141,24.5918826 82.61,24.74 L82.63,24.8 Z M86.25,24.35 C86.5925025,24.3478645 86.9321478,24.4123972 87.25,24.54 C87.5337032,24.6482314 87.7850027,24.8272393 87.98,25.06 C88.1470861,25.2589464 88.239094,25.5101989 88.24,25.77 C88.2361021,26.0340268 88.1406699,26.2885127 87.97,26.49 C87.7805833,26.7267003 87.5322922,26.9094702 87.25,27.02 C86.9324409,27.1486014 86.592596,27.2131719 86.25,27.21 C85.7533731,27.2244941 85.2655037,27.0770803 84.86,26.79 C84.5123092,26.5739475 84.2948858,26.1990794 84.28,25.79 C84.2895713,25.3427122 84.5374626,24.9346449 84.93,24.72 C85.3206008,24.4701273 85.7763932,24.341392 86.24,24.35 L86.25,24.35 Z M86.25,24.99 C85.9890265,24.9805351 85.7322855,25.0579091 85.52,25.21 C85.3396434,25.3439449 85.2333202,25.5553453 85.2333202,25.78 C85.2333202,26.0046547 85.3396434,26.2160551 85.52,26.35 C85.7319437,26.5027843 85.9889282,26.5802317 86.25,26.57 C86.514261,26.5809399 86.7746358,26.5035312 86.99,26.35 C87.1703566,26.2160551 87.2766798,26.0046547 87.2766798,25.78 C87.2766798,25.5553453 87.1703566,25.3439449 86.99,25.21 C86.7743004,25.057157 86.5141659,24.9798197 86.25,24.99 L86.25,24.99 Z M89.94,22.79 L90.89,22.79 L90.89,27.15 L89.94,27.15 L89.94,22.79 Z M92.77,24.42 L93.77,24.42 L93.77,25.73 C93.7574975,25.9095751 93.7813046,26.0898284 93.84,26.26 C93.889508,26.3597153 93.9702847,26.440492 94.07,26.49 C94.1951091,26.5479899 94.3322108,26.5754102 94.47,26.57 C94.6076989,26.5742995 94.744547,26.5469299 94.87,26.49 C94.9778729,26.4402749 95.0659151,26.3557543 95.12,26.25 C95.1707232,26.0884725 95.1910668,25.9189423 95.18,25.75 L95.18,24.41 L96.18,24.41 L96.18,25.57 C96.2086372,25.9113795 96.1537223,26.254598 96.02,26.57 C95.8889138,26.7876636 95.6931382,26.9589673 95.46,27.06 C95.1624461,27.1832938 94.8418894,27.2412668 94.52,27.23 C94.1755423,27.2433342 93.8328324,27.1747923 93.52,27.03 C93.2799064,26.9124242 93.0887703,26.714209 92.98,26.47 C92.8883384,26.1793087 92.8510486,25.8742107 92.87,25.57 L92.87,24.43 L92.77,24.42 Z M98.18,23.42 L99.12,23.42 L99.12,24.42 L99.68,24.42 L99.68,25.01 L99.12,25.01 L99.12,27.15 L98.18,27.15 L98.18,25.01 L97.69,25.01 L97.69,24.42 L98.18,24.42 L98.18,23.42 Z M101.59,23.3 C101.743626,23.2956522 101.894514,23.3412697 102.02,23.43 C102.128032,23.4967631 102.195571,23.6130805 102.2,23.74 C102.195571,23.8669195 102.128032,23.9832369 102.02,24.05 C101.763152,24.223254 101.426848,24.223254 101.17,24.05 C101.060404,23.9800124 100.992899,23.8600048 100.99,23.73 C100.992596,23.6025597 101.060607,23.4854294 101.17,23.42 C101.295486,23.3312697 101.446374,23.2856522 101.6,23.29 L101.59,23.3 Z M101.11,24.42 L102.11,24.42 L102.11,27.15 L101.11,27.15 L101.11,24.42 Z M105.72,24.35 C106.062479,24.3481186 106.402076,24.412642 106.72,24.54 C107.003493,24.6486233 107.254701,24.8275659 107.45,25.06 C107.616348,25.2593728 107.708255,25.5103499 107.71,25.77 C107.708912,26.032794 107.617064,26.287142 107.45,26.49 C107.259937,26.7260262 107.011841,26.9086526 106.73,27.02 C106.412367,27.1483488 106.072572,27.2129097 105.73,27.21 C105.233373,27.2244941 104.745504,27.0770803 104.34,26.79 C103.994812,26.5728791 103.78093,26.1976477 103.77,25.79 C103.779571,25.3427122 104.027463,24.9346449 104.42,24.72 C104.810601,24.4701273 105.266393,24.341392 105.73,24.35 L105.72,24.35 Z M105.72,24.99 C105.459026,24.9805351 105.202285,25.0579091 104.99,25.21 C104.809643,25.3439449 104.70332,25.5553453 104.70332,25.78 C104.70332,26.0046547 104.809643,26.2160551 104.99,26.35 C105.201944,26.5027843 105.458928,26.5802317 105.72,26.57 C105.984261,26.5809399 106.244636,26.5035312 106.46,26.35 C106.640357,26.2160551 106.74668,26.0046547 106.74668,25.78 C106.74668,25.5553453 106.640357,25.3439449 106.46,25.21 C106.2443,25.057157 105.984166,24.9798197 105.72,24.99 L105.72,24.99 Z M109.51,24.42 L110.45,24.42 L110.45,24.7 C110.633827,24.5842408 110.832233,24.4934447 111.04,24.43 C111.215118,24.3770625 111.397056,24.3501087 111.58,24.35 C111.936434,24.3316931 112.288662,24.4338392 112.58,24.64 C112.803179,24.8054783 112.927385,25.0727105 112.91,25.35 L112.91,27.15 L111.97,27.15 L111.97,25.95 C111.981846,25.7315659 111.961632,25.5125746 111.91,25.3 C111.870857,25.1975186 111.796379,25.1123999 111.7,25.06 C111.585536,25.0021348 111.458145,24.9745908 111.33,24.98 C111.15289,24.9740374 110.978262,25.0229332 110.83,25.12 C110.692317,25.20934 110.589839,25.3436216 110.54,25.5 C110.517904,25.6826676 110.517904,25.8673324 110.54,26.05 L110.54,27.15 L109.53,27.15 L109.53,24.42 L109.51,24.42 Z M117.11,24.8 L116.52,25.22 C116.335619,25.067888 116.108422,24.9770092 115.87,24.96 C115.787814,24.9404443 115.702186,24.9404443 115.62,24.96 C115.569295,24.9791982 115.534233,25.0259473 115.53,25.08 C115.534504,25.1204733 115.556408,25.1569795 115.59,25.18 C115.677503,25.2349203 115.771578,25.2785976 115.87,25.31 L116.22,25.44 C116.493925,25.5225877 116.748814,25.6585285 116.97,25.84 C117.100551,25.965202 117.173025,26.1391414 117.17,26.32 C117.165198,26.5750351 117.023956,26.8078941 116.8,26.93 C116.49754,27.1066467 116.149686,27.1901316 115.8,27.17 C115.315234,27.1935533 114.840794,27.0246241 114.48,26.7 L115.06,26.24 C115.176344,26.3377665 115.308143,26.4154944 115.45,26.47 C115.576866,26.5237178 115.712352,26.5542022 115.85,26.56 C115.954388,26.5631733 116.057796,26.5390447 116.15,26.49 C116.23,26.49 116.27,26.4 116.27,26.34 C116.27,26.28 116.13,26.13 115.86,26.03 L115.54,25.91 C114.93,25.69 114.63,25.41 114.63,25.07 C114.639614,24.8399038 114.768472,24.6314584 114.97,24.52 C115.233975,24.3576227 115.540332,24.2775519 115.85,24.29 C116.085268,24.2891047 116.318848,24.3297274 116.54,24.41 C116.768188,24.4903968 116.973888,24.624102 117.14,24.8 L117.11,24.8 Z" id="Shape" fill="#F9A51A"></path>
        </g>
    </g>
</svg>
